<svg width="189" height="59" viewBox="0 0 189 59" fill="none" xmlns="http://www.w3.org/2000/svg">
<path d="M30 1.00035L188.208 1.00001" stroke="#B5AC89" stroke-width="1.52"/>
<path d="M188.1 0.900391V58.0996H22.9004V56.8994H186.9V0.900391H188.1Z" fill="#B5AC89" stroke="#B5AC89" stroke-width="0.2"/>
<path d="M44.6802 23.4686C33.9708 26.7578 25.8997 33.6705 23.355 42.0762V38.2427C23.9794 29.5804 32.316 22.1934 44.1416 18.7331C43.7904 16.9758 43.283 15.2806 42.6351 13.6788C32.956 17.1857 25.7357 23.733 23.355 31.5866V29.1139C23.355 20.8015 30.0991 13.4766 40.309 9.21547C39.3489 7.74583 38.2561 6.40838 37.0462 5.20312C28.1867 10.2885 22.5042 18.1577 22.5042 26.9989C22.5042 18.1577 16.8216 10.2885 7.9621 5.20312C6.75221 6.40061 5.65941 7.74583 4.69931 9.21547C14.917 13.4844 21.6533 20.8015 21.6533 29.1139V31.5866C19.2726 23.7252 12.0523 17.1779 2.3732 13.671C1.72533 15.2729 1.21015 16.9602 0.866699 18.7253C12.7002 22.1856 21.0367 29.5804 21.6533 38.2505V42.0762C19.1087 33.6628 11.0298 26.75 0.328105 23.4608C0.320299 23.7641 0.304688 24.0751 0.304688 24.3784C0.304688 26.0113 0.445191 27.6054 0.70278 29.1528C12.6221 32.5897 21.0367 40.0156 21.6533 48.7246V57.9779H23.3472V48.709C23.9716 40.0079 32.3862 32.5897 44.2977 29.1528C44.5553 27.6054 44.6958 26.0113 44.6958 24.3784C44.6958 24.0674 44.688 23.7641 44.6724 23.4608" fill="#B5AC89"/>
<path d="M23.667 58H21.3409V48.5206C20.7476 40.2357 12.8014 32.9065 0.616652 29.423L0.429315 29.3691L0.398093 29.1764C0.132698 27.5888 0 25.9857 0 24.3981C0 24.1053 0.00780608 23.8201 0.0156118 23.535L0.0312229 23.1265L0.429315 23.1882C10.6002 26.2863 18.281 32.5366 21.3487 40.1124V38.1394C20.7554 29.9008 12.8716 22.5947 0.780573 19.0881L0.507373 19.0111L0.562012 18.7336C0.91327 16.9841 1.42845 15.2809 2.08413 13.6702L2.20121 13.3928L2.48222 13.4929C11.7164 16.8069 18.484 22.6564 21.3409 29.7159V29.0839C21.3409 21.2615 15.0729 13.9939 4.57415 9.64723L4.2307 9.5008L4.43365 9.19253C5.39376 7.73593 6.50217 6.38723 7.73547 5.16955L7.9072 5L8.11795 5.1156C16.15 9.67806 21.2316 16.2135 22.5039 23.404C23.7762 16.2058 28.8578 9.67806 36.8899 5.1156L37.1006 5L37.2723 5.16955C38.5056 6.38723 39.6219 7.74364 40.5742 9.19253L40.7771 9.5008L40.4337 9.64723C29.935 13.9939 23.667 21.2615 23.667 29.0839V29.7159C26.5239 22.6564 33.2914 16.8069 42.5256 13.4929L42.8066 13.3928L42.9237 13.6702C43.5872 15.2886 44.1023 16.9919 44.4458 18.7336L44.5004 19.0111L44.2272 19.0881C32.144 22.587 24.268 29.8931 23.6592 38.1472V40.1124C26.7346 32.5366 34.4076 26.2863 44.5785 23.1882L44.9688 23.0726L44.9844 23.5581C44.9922 23.8355 45 24.1207 45 24.3981C45 25.9857 44.8673 27.5888 44.6019 29.1764L44.5707 29.3691L44.3834 29.423C32.2064 32.9065 24.2602 40.228 23.6592 48.5283V58H23.667ZM21.9731 57.3834H23.0425V48.5052C23.667 39.9583 31.699 32.4595 44.0321 28.8835C44.2741 27.3961 44.3912 25.8856 44.3912 24.3981C44.3912 24.2363 44.3912 24.0667 44.3834 23.9049C33.8456 27.2188 26.1102 33.97 23.6592 42.0237L23.0425 44.0352V38.1317C23.6592 29.6542 31.5976 22.1863 43.7823 18.5795C43.4623 17.0689 43.0174 15.5892 42.4553 14.1866C32.8153 17.724 25.9696 24.0745 23.6513 31.6349L23.0347 33.6464V29.0993C23.0347 21.0996 29.3027 13.701 39.8326 9.23877C38.9896 8.00567 38.0373 6.84964 36.9913 5.79381C27.9757 10.9882 22.8161 18.7105 22.8161 27.0108H22.1917C22.1917 18.7182 17.0243 10.9959 8.01648 5.79381C6.96271 6.84964 6.01041 8.00567 5.1752 9.23877C15.7051 13.701 21.9731 21.1073 21.9731 29.0993V33.6464L21.3565 31.6349C19.046 24.0667 12.2003 17.724 2.55247 14.1866C1.99046 15.5969 1.54553 17.0689 1.2255 18.5795C13.418 22.1863 21.3565 29.6619 21.9653 38.124V44.0429L21.3487 42.0314C18.8899 33.9778 11.1622 27.2266 0.624458 23.9126C0.624458 24.0822 0.616652 24.244 0.616652 24.4058C0.616652 25.8933 0.733739 27.4038 0.975716 28.8912C13.3166 32.4749 21.3487 39.9814 21.9653 48.5052V57.3912L21.9731 57.3834Z" fill="#B5AC89"/>
<path d="M22.5061 15.4289C24.2156 10.6856 27.9857 6.07456 33.442 2.28771C32.2477 1.51013 30.9831 0.856957 29.6562 0.34375C26.5495 3.35301 24.1063 6.76661 22.5061 10.4601C20.906 6.76661 18.4628 3.36078 15.3561 0.34375C14.0291 0.856957 12.7646 1.51013 11.5703 2.28771C17.0499 6.09788 20.8123 10.7245 22.5061 15.4211" fill="#B5AC89"/>
<path d="M22.5135 16.3604L22.2168 15.5439C20.523 10.8473 16.6826 6.22846 11.3981 2.55826L11.0156 2.29388L11.4059 2.04505C12.6314 1.25191 13.9194 0.583189 15.2541 0.0699828L15.4415 0L15.582 0.139966C18.595 3.05591 20.9211 6.27512 22.5135 9.71205C24.1058 6.27512 26.4319 3.05591 29.4449 0.139966L29.5854 0L29.7728 0.0699828C31.0998 0.590965 32.3955 1.25191 33.6132 2.04505L34.0035 2.30165L33.621 2.56603C28.2663 6.28289 24.5195 10.7773 22.8023 15.5517L22.5057 16.3682L22.5135 16.3604ZM12.1318 2.30943C17.1119 5.85522 20.6791 10.0697 22.5057 14.5564C24.3322 10.062 27.8994 5.84744 32.8795 2.30943C31.8725 1.68736 30.8109 1.15083 29.7337 0.715379C26.6661 3.71686 24.3322 7.03715 22.7945 10.5907L22.5057 11.2594L22.2168 10.5907C20.6791 7.03715 18.3452 3.71686 15.2775 0.715379C14.1926 1.15083 13.1388 1.68736 12.124 2.30943" fill="#B5AC89"/>
</svg>
