<svg width="80" height="81" viewBox="0 0 80 81" fill="none" xmlns="http://www.w3.org/2000/svg">
<path d="M11.8877 69.0685C1.20979 58.9969 -2.35538 42.6807 1.51925 28.6766C5.78135 13.2661 18.311 2.86752 34.0209 0.46223C47.3783 -1.58328 60.6075 3.24995 69.6173 13.1806C70.8023 12.5818 72.561 9.84942 73.907 11.4496C75.2531 13.0498 72.7321 14.7556 71.7634 15.8627C88.603 36.7429 78.222 69.2748 53.3161 77.965C39.2215 82.8838 22.7165 79.2784 11.8877 69.0685ZM52.2896 27.635C56.7479 23.9365 61.9233 20.1499 66.1024 16.2325C66.3817 15.9708 67.2824 15.2538 67.2195 14.894C67.1038 14.2323 61.722 9.90225 60.7911 9.26319C39.0177 -5.7548 7.98034 7.32587 3.29052 33.2105C-1.59304 60.1618 22.9203 82.7404 49.4264 76.0831C74.0001 69.9088 85.6165 38.5293 69.8739 18.2528L39.9989 52.6314C39.1133 52.7874 38.678 52.0427 38.1396 51.4867L21.8787 29.605C21.4887 28.3596 22.4976 27.0765 23.7607 27.7256L39.5083 38.0613C40.0266 38.0789 41.2594 36.9543 41.7626 36.5592C45.3228 33.774 48.7949 30.5359 52.2871 27.6375L52.2896 27.635ZM59.7118 25.5241L40.2078 41.5359L39.146 41.4453L29.9752 35.3088L29.8544 35.6812C32.9541 39.1658 35.3946 43.1864 38.2805 46.827C38.5749 47.1994 39.7524 48.86 40.1373 48.6033L59.7143 25.5241H59.7118Z" fill="white"/>
</svg>
